HIERARCHY
ROOT Hips
{
	OFFSET 0.00000 0.00000 0.00000
	CHANNELS 6 Xposition Yposition Zposition Zrotation Yrotation Xrotation 
	JOINT LHipJoint
	{
		OFFSET 0 0 0
		CHANNELS 3 Zrotation Yrotation Xrotation
		JOINT LeftUpLeg
		{
			OFFSET 1.33213 -1.58186 0.78596
			CHANNELS 3 Zrotation Yrotation Xrotation
			JOINT LeftLeg
			{
				OFFSET 2.29717 -6.31144 0.00000
				CHANNELS 3 Zrotation Yrotation Xrotation
				JOINT LeftFoot
				{
					OFFSET 2.38430 -6.55082 0.00000
					CHANNELS 3 Zrotation Yrotation Xrotation
					JOINT LeftToeBase
					{
						OFFSET 0.11863 -0.32594 1.77568
						CHANNELS 3 Zrotation Yrotation Xrotation
						End Site
						{
							OFFSET 0.00000 -0.00000 0.91633
						}
					}
				}
			}
		}
	}
	JOINT RHipJoint
	{
		OFFSET 0 0 0
		CHANNELS 3 Zrotation Yrotation Xrotation
		JOINT RightUpLeg
		{
			OFFSET -1.41575 -1.58186 0.78596
			CHANNELS 3 Zrotation Yrotation Xrotation
			JOINT RightLeg
			{
				OFFSET -2.42012 -6.64922 0.00000
				CHANNELS 3 Zrotation Yrotation Xrotation
				JOINT RightFoot
				{
					OFFSET -2.47254 -6.79327 0.00000
					CHANNELS 3 Zrotation Yrotation Xrotation
					JOINT RightToeBase
					{
						OFFSET -0.15219 -0.41813 1.93430
						CHANNELS 3 Zrotation Yrotation Xrotation
						End Site
						{
							OFFSET -0.00000 -0.00000 0.99984
						}
					}
				}
			}
		}
	}
	JOINT LowerBack
	{
		OFFSET 0 0 0
		CHANNELS 3 Zrotation Yrotation Xrotation
		JOINT Spine
		{
			OFFSET -0.04717 2.09389 -0.14516
			CHANNELS 3 Zrotation Yrotation Xrotation
			JOINT Spine1
			{
				OFFSET 0.02825 2.09433 -0.11325
				CHANNELS 3 Zrotation Yrotation Xrotation
				JOINT Neck
				{
					OFFSET 0 0 0
					CHANNELS 3 Zrotation Yrotation Xrotation
					JOINT Neck1
					{
						OFFSET -0.01210 1.39029 0.12448
						CHANNELS 3 Zrotation Yrotation Xrotation
						JOINT Head
						{
							OFFSET 0.09492 1.38365 0.14559
							CHANNELS 3 Zrotation Yrotation Xrotation
							End Site
							{
								OFFSET 0.03402 1.40343 0.03708
							}
						}
					}
				}
				JOINT LeftShoulder
				{
					OFFSET 0 0 0
					CHANNELS 3 Zrotation Yrotation Xrotation
					JOINT LeftArm
					{
						OFFSET 2.83352 1.10671 -0.20481
						CHANNELS 3 Zrotation Yrotation Xrotation
						JOINT LeftForeArm
						{
							OFFSET 4.77195 -0.00000 -0.00000
							CHANNELS 3 Zrotation Yrotation Xrotation
							JOINT LeftHand
							{
								OFFSET 2.98444 -0.00000 0.00000
								CHANNELS 3 Zrotation Yrotation Xrotation
								JOINT LeftFingerBase
								{
									OFFSET 0 0 0
									CHANNELS 3 Zrotation Yrotation Xrotation
									JOINT LeftHandIndex1
									{
										OFFSET 0.99228 -0.00000 0.00000
										CHANNELS 3 Zrotation Yrotation Xrotation
										End Site
										{
											OFFSET 0.80001 -0.00000 0.00000
										}
									}
								}
								JOINT LThumb
								{
									OFFSET 0 0 0
									CHANNELS 3 Zrotation Yrotation Xrotation
									End Site
									{
										OFFSET 0.81222 -0.00000 0.81222
									}
								}
							}
						}
					}
				}
				JOINT RightShoulder
				{
					OFFSET 0 0 0
					CHANNELS 3 Zrotation Yrotation Xrotation
					JOINT RightArm
					{
						OFFSET -3.23760 1.11106 0.06723
						CHANNELS 3 Zrotation Yrotation Xrotation
						JOINT RightForeArm
						{
							OFFSET -4.62052 -0.00000 0.00000
							CHANNELS 3 Zrotation Yrotation Xrotation
							JOINT RightHand
							{
								OFFSET -2.95332 -0.00000 0.00000
								CHANNELS 3 Zrotation Yrotation Xrotation
								JOINT RightFingerBase
								{
									OFFSET 0 0 0
									CHANNELS 3 Zrotation Yrotation Xrotation
									JOINT RightHandIndex1
									{
										OFFSET -0.99096 -0.00000 0.00000
										CHANNELS 3 Zrotation Yrotation Xrotation
										End Site
										{
											OFFSET -0.79893 -0.00000 0.00000
										}
									}
								}
								JOINT RThumb
								{
									OFFSET 0 0 0
									CHANNELS 3 Zrotation Yrotation Xrotation
									End Site
									{
										OFFSET -0.81113 -0.00000 0.81113
									}
								}
							}
						}
					}
				}
			}
		}
	}
}
MOTION
Frames: 6
Frame Time: .0083333
0.5321 19.1804 16.4696 -180.3840 -6.0787 -163.0740 0.0000 0.0000 0.0000 -16.4509 -17.0643 -34.8286 2.6116 10.0380 29.0998 -0.0054 -6.0541 -4.0913 0.0477 -1.4098 -3.8772 0.0000 0.0000 0.0000 16.3711 5.8064 -25.7075 -7.9426 -16.0769 52.3558 -0.5547 2.6695 15.2923 -0.1067 2.1060 -5.7987 -4.2345 -0.3309 -4.2346 -1.2645 -0.1820 2.3096 1.0471 -0.2301 4.7802 -5.9251 -1.4677 2.1271 8.8739 -1.8802 -11.8725 3.7799 -1.3173 -3.7191 0.0000 -0.0000 0.0000 -87.2227 -11.1706 27.1329 11.8099 -19.5189 -2.0383 -0.0000 -0.0000 22.5079 9.0373 7.7582 1.2300 -7.1250 0.0000 -0.0000 -15.0835 37.4357 2.8879 0.0000 -0.0000 0.0000 90.9906 -3.1819 14.3563 -20.3399 31.0496 -5.7056 0.0000 0.0000 24.4759 -1.0822 -4.6066 0.0869 7.1250 -0.0000 -0.0000 20.7514 -33.9624 5.9540
0.4961 19.2709 16.3483 -180.7600 -5.9860 -163.4960 0.0000 0.0000 0.0000 -17.5795 -16.3243 -32.3568 2.1740 9.2196 26.4846 -0.0197 -5.8626 -3.5178 0.0435 -1.3469 -3.7038 0.0000 0.0000 0.0000 15.4046 6.3024 -28.0191 -9.7063 -17.2413 58.5020 -0.3633 3.6831 13.3448 -0.0001 -0.0489 0.1344 -4.5857 -0.4996 -4.1826 -1.2573 -0.3912 2.4586 1.2320 -0.3531 4.9210 -5.9024 -1.3925 1.9803 8.9723 -1.7717 -11.7541 3.7991 -1.2673 -3.6659 0.0000 -0.0000 0.0000 -87.2381 -11.4876 27.3993 11.8189 -19.5325 -2.0413 -0.0000 -0.0000 22.6980 9.1115 7.8662 1.2574 -7.1250 0.0000 -0.0000 -15.0458 37.5460 2.8383 0.0000 -0.0000 0.0000 91.0825 -3.3870 13.5777 -20.2415 30.9322 -5.6549 0.0000 0.0000 24.9218 -1.2443 -4.5565 0.0989 7.1250 -0.0000 -0.0000 20.6132 -33.9240 5.9301
0.4624 19.3410 16.2332 -180.8780 -5.9567 -163.9170 0.0000 0.0000 0.0000 -18.3357 -15.5584 -30.1075 1.7942 8.4236 24.0082 -0.0286 -5.4969 -2.9043 0.0368 -1.2390 -3.4067 0.0000 0.0000 0.0000 14.7552 6.7647 -30.2885 -11.3265 -18.0912 63.8373 -0.1125 4.7109 9.7697 -0.0016 -0.2546 0.6995 -4.6608 -0.6684 -4.0193 -1.1682 -0.6242 2.5527 1.3472 -0.4750 4.9418 -5.8618 -1.3254 1.8434 9.0042 -1.6786 -11.6194 3.7950 -1.2208 -3.6097 -0.0000 -0.0000 0.0000 -87.2992 -11.7560 27.3828 11.8372 -19.5600 -2.0475 -0.0000 -0.0000 22.8855 9.1945 7.8968 1.2740 -7.1250 0.0000 -0.0000 -14.9838 37.5815 2.8125 -0.0000 -0.0000 0.0000 91.1941 -3.4022 12.5968 -19.8674 30.4823 -5.4639 0.0000 0.0000 25.4887 -1.6706 -4.3903 0.1279 7.1250 -0.0000 -0.0000 20.2418 -33.7902 5.8808
0.4326 19.3982 16.1193 -180.9510 -5.8210 -164.3210 0.0000 0.0000 0.0000 -18.9804 -14.6666 -28.1100 1.4889 7.7088 21.8330 -0.0374 -5.2556 -2.3272 0.0283 -1.0868 -2.9878 0.0000 0.0000 0.0000 14.2154 7.1280 -32.6023 -12.7126 -18.6759 68.2305 0.0588 5.6262 5.9174 -0.0004 -0.1316 0.3616 -4.7359 -0.8070 -3.8069 -1.0676 -0.8209 2.5906 1.4794 -0.5761 4.8751 -5.8247 -1.2552 1.7732 9.0162 -1.5841 -11.5526 3.7877 -1.1753 -3.5853 -0.0000 -0.0000 0.0000 -87.3372 -11.8127 27.3908 11.9446 -19.7215 -2.0835 -0.0000 -0.0000 22.6880 9.3091 7.9119 1.2926 -7.1250 0.0000 -0.0000 -14.8921 37.6039 2.7859 -0.0000 -0.0000 0.0000 91.3103 -3.7993 11.8436 -19.8154 30.4192 -5.4375 0.0000 0.0000 25.5923 -1.9672 -4.4433 0.1525 7.1250 -0.0000 -0.0000 20.0226 -33.8551 5.7764
0.3992 19.4454 16.0041 -181.0950 -5.6399 -164.6690 0.0000 0.0000 0.0000 -19.6933 -13.6506 -26.4139 1.2606 7.1172 20.0631 -0.0515 -5.3739 -1.8371 0.0269 -1.0583 -2.9093 0.0000 0.0000 0.0000 13.6627 7.2085 -34.9809 -13.7996 -19.0521 71.5915 0.1348 6.4977 2.1716 -0.0009 -0.1902 0.5226 -4.8397 -0.9448 -3.6917 -0.9784 -1.0088 2.6314 1.6158 -0.6748 4.8681 -5.9137 -1.1791 1.7763 9.1375 -1.4807 -11.5930 3.8381 -1.1304 -3.6035 0.0000 0.0000 0.0000 -87.3860 -11.7930 27.4044 12.0802 -19.9248 -2.1295 -0.0000 -0.0000 22.3193 9.5010 7.9165 1.3205 -7.1250 0.0000 -0.0000 -14.7339 37.6213 2.7482 0.0000 0.0000 0.0000 91.3362 -4.5156 11.4554 -20.0914 30.7523 -5.5780 0.0000 0.0000 25.1013 -2.0240 -4.8230 0.1702 7.1250 -0.0000 -0.0000 20.0670 -34.2149 5.6040
0.3629 19.4784 15.8926 -181.0490 -5.3903 -164.9580 0.0000 0.0000 0.0000 -20.1518 -12.6021 -25.0594 1.0909 6.6376 18.6461 -0.0648 -5.5954 -1.4858 0.0419 -1.3219 -3.6349 0.0000 0.0000 0.0000 13.3647 7.3368 -37.2475 -14.5506 -19.2726 73.8791 0.1165 7.2126 -1.5663 -0.0015 0.2481 -0.6817 -4.6500 -0.9862 -3.6342 -0.8779 -1.0784 2.6007 1.6100 -0.7009 4.8053 -6.0320 -1.1404 2.1104 9.3026 -1.4247 -11.7521 3.9147 -1.1149 -3.7085 0.0000 -0.0000 0.0000 -87.5256 -11.7542 27.1811 12.1152 -19.9772 -2.1415 -0.0000 -0.0000 22.2831 9.6967 7.9582 1.3552 -7.1250 0.0000 -0.0000 -14.5805 37.6752 2.6983 0.0000 -0.0000 0.0000 91.4323 -5.1702 10.5920 -20.1590 30.8334 -5.6126 0.0000 0.0000 24.9064 -1.9688 -5.0875 0.1747 7.1250 -0.0000 -0.0000 20.1731 -34.4605 5.5087
